PathFileType	4	(X/Y/Z)	P:\Projects\LMB_grand_challenge_database\project_only\opensim\experimental_data\SixthCompetition/DM_ngait_og9_new.trc
DataRate	CameraRate	NumFrames	NumMarkers	Units	OrigDataRate	OrigDataStartFrame	OrigNumFrames
120	120	4	68	mm	120	92	369
Frame#	Time	Sternum			Neck			R_Shoulder			L_Shoulder			Xiphoid			Thoracic			R_Asis			L_Asis			R_Psis			L_Psis			Lumbar			R_Elbow			R_ElbowMedial			R_ShoulderAnterior			R_ShoulderPosterior			R_Wrist			R_Radius			R_Ulna			L_Elbow			L_ElbowMedial			L_ShoulderAnterior			L_ShoulderPosterior			L_Wrist			L_Ulna			L_Radius			L_Thigh_Superior			L_Thigh_Inferior			L_Thigh_Lateral			L_Knee_Lateral			L_Knee_Medial			L_Patella			L_Shank_Superior			L_Shank_Inferior			L_Shank_Lateral			L_Ankle_Lateral			L_Ankle_Medial			R_Thigh_Superior			R_Thigh_Inferior			R_Thigh_Lateral			R_Knee_Lateral			R_Knee_Medial			R_Patella			R_Shank_Superior			R_Shank_Inferior			R_Shank_Lateral			R_Ankle_Lateral			RankleMedial			R_Heel			R_Toe			R_Midfoot_Medial			R_Midfoot_Lateral			R_Hindfoot			R_Midfoot_Superior			R_ToeMedial			R_ToeLateral			L_Heel			L_Toe			L_Midfoot_Medial			L_Midfoot_Lateral			L_Hindfoot			L_Midfoot_Superior			L_ToeMedial			L_ToeLateral			Oglobal			Sacral			Xglobal			Yglobal			Zglobal			
		X1	Y1	Z1	X2	Y2	Z2	X3	Y3	Z3	X4	Y4	Z4	X5	Y5	Z5	X6	Y6	Z6	X7	Y7	Z7	X8	Y8	Z8	X9	Y9	Z9	X10	Y10	Z10	X11	Y11	Z11	X12	Y12	Z12	X13	Y13	Z13	X14	Y14	Z14	X15	Y15	Z15	X16	Y16	Z16	X17	Y17	Z17	X18	Y18	Z18	X19	Y19	Z19	X20	Y20	Z20	X21	Y21	Z21	X22	Y22	Z22	X23	Y23	Z23	X24	Y24	Z24	X25	Y25	Z25	X26	Y26	Z26	X27	Y27	Z27	X28	Y28	Z28	X29	Y29	Z29	X30	Y30	Z30	X31	Y31	Z31	X32	Y32	Z32	X33	Y33	Z33	X34	Y34	Z34	X35	Y35	Z35	X36	Y36	Z36	X37	Y37	Z37	X38	Y38	Z38	X39	Y39	Z39	X40	Y40	Z40	X41	Y41	Z41	X42	Y42	Z42	X43	Y43	Z43	X44	Y44	Z44	X45	Y45	Z45	X46	Y46	Z46	X47	Y47	Z47	X48	Y48	Z48	X49	Y49	Z49	X50	Y50	Z50	X51	Y51	Z51	X52	Y52	Z52	X53	Y53	Z53	X54	Y54	Z54	X55	Y55	Z55	X56	Y56	Z56	X57	Y57	Z57	X58	Y58	Z58	X59	Y59	Z59	X60	Y60	Z60	X61	Y61	Z61	X62	Y62	Z62	X63	Y63	Z63	X64	Y64	Z64	X65	Y65	Z65	X66	Y66	Z66	X67	Y67	Z67	X68	Y68	Z68	

93	3.191667	-593.543	1354.3	171.618	-754.745	1439.1	166.157	-670.74	1391.59	339.865	-674.476	1399.51	0.643173	-581.394	1188.14	176.821	-847.341	1254.47	166.795	-672.807	954.775	307.475	-651.047	971.1420000000001	34.1463	-865.948	1001.62	186.945	-861.812	999.373	109.352	-863.412	1049.97	154.091	-758.693	1091.45	445.095	-0	0	0	-0	0	0	-0	0	0	-682.481	822.7619999999999	439.846	-673.898	834.275	398.018	-730.701	823.711	443.222	-558.215	1085.97	-75.8781	-0	0	0	-0	0	0	-0	0	0	-348.683	926.7670000000001	-15.1055	-387.149	906.296	-36.6189	-370.671	942.717	25.7258	-745.975	794.124	3.65953	-778.905	576.5119999999999	54.6443	-710.822	656.404	76.12260000000001	-0	0	0	-0	0	0	-776.937	479.087	118.282	-861.748	434.735	50.1562	-972.235	186.883	53.9771	-887	291.901	123.089	-0	0	0	-0	0	0	-729.393	777.17	337.806	-623.908	586.123	304.461	-610.391	726.847	321.875	-0	0	0	-0	0	0	-514.167	538.1660000000001	245.622	-578.237	390.974	318.861	-477.028	203.569	307.403	-470.998	346.975	242.486	-0	0	0	-0	0	0	-485.652	53.3523	246.916	-210.276	165.197	273.7	-268.526	120.26	212.339	-282.857	101.625	327.23	-382.597	55.9664	305.72	-360.711	170.4	268.314	-234.466	144.371	226.234	-242.692	130.562	317.297	-1076.93	70.878	113.509	-778.8680000000001	50.1805	83.31489999999999	-856.971	29.3836	146.124	-877.107	29.658	33.427	-982.5	30.4397	49.1531	-908.6	118.658	95.90770000000001	-812.655	32.906	130.133	-820.8440000000001	34.2801	35.8573	-0	0	0	-863.88	1000.5	148.149	-200	0	0	-0	0	200	-0	200	0	
94	3.2	-584.644	1352.63	172.904	-745.811	1437.42	167.36	-662.197	1389.45	341.191	-665.163	1398.21	2.04686	-572.437	1186.39	177.802	-838.3339999999999	1252.58	167.761	-663.314	952.779	307.8	-642.3630000000001	969.4400000000001	34.617	-856.914	999.687	188.04	-852.952	997.504	110.371	-854.407	1048.05	155.163	-750.816	1089.39	446.32	-0	0	0	-0	0	0	-0	0	0	-673.813	820.727	440.62	-665.3440000000001	832.532	399.067	-722.158	821.521	444.108	-547.836	1084.82	-73.46729999999999	-0	0	0	-0	0	0	-0	0	0	-337.887	926.518	-12.0167	-375.905	905.538	-33.6969	-360.094	942.101	29.0463	-738.126	792.876	4.21431	-771.96	575.179	55.3083	-703.8049999999999	654.949	76.3805	-0	0	0	-0	0	0	-771.49	476.909	119.063	-856.922	434.613	50.1034	-969.101	186.644	53.6215	-883.799	291.415	123.826	-0	0	0	-0	0	0	-717.169	775.701	338.103	-611.425	585.092	304.026	-598.308	726.0940000000001	321.235	-0	0	0	-0	0	0	-501.335	538.551	244.743	-565.208	388.373	317.034	-469.034	201.319	305.766	-461.168	344.77	241.311	-0	0	0	-0	0	0	-479.479	51.2709	244.833	-202.947	160.032	272.982	-261.402	115.651	211.46	-276.729	97.7116	326.333	-376.993	52.9585	304.27	-353.345	167.121	266.573	-227.095	139.27	225.519	-236.105	125.916	316.495	-1076.45	72.5866	113.599	-778.705	49.8464	83.27119999999999	-856.644	30.5018	146.509	-876.746	30.2296	33.8055	-982.08	31.1675	49.2349	-908.309	119.578	95.8267	-812.378	32.6522	130.181	-820.603	34.0864	35.8845	-0	0	0	-854.933	998.596	149.205	-200	0	0	-0	0	200	-0	200	0	
95	3.208333	-575.659	1350.87	174.268	-736.615	1435.78	168.512	-653.508	1387.33	342.611	-656.073	1396.84	3.34568	-563.356	1184.75	178.681	-829.35	1250.91	168.665	-653.345	951.133	308.023	-633.372	967.829	35.1755	-847.482	997.7809999999999	189.048	-843.8099999999999	995.658	111.438	-845.0940000000001	1046.16	156.249	-743.002	1087.16	447.633	-0	0	0	-0	0	0	-0	0	0	-665.356	818.8200000000001	441.571	-656.712	830.597	400.055	-713.679	819.399	444.992	-537.546	1083.47	-71.0189	-0	0	0	-0	0	0	-0	0	0	-327.583	925.739	-9.15652	-365.388	904.25	-30.6394	-349.582	941.154	31.7874	-729.885	791.405	4.66125	-765.024	574.021	55.6841	-696.2	653.034	76.7423	-0	0	0	-0	0	0	-764.721	474.559	119.381	-850.672	433.845	50.5417	-967.213	187.248	54.6144	-879.417	290.662	123.529	-0	0	0	-0	0	0	-705.138	774.429	338.44	-598.971	583.84	303.341	-586.028	725.216	320.473	-0	0	0	-0	0	0	-489.686	537.8869999999999	243.567	-554.943	387.247	315.862	-461.9	198.818	303.983	-451.982	342.155	240.13	-0	0	0	-0	0	0	-475.444	51.4298	243.111	-196.465	152.527	271.596	-255.432	109.199	210.34	-271.949	93.11620000000001	325.323	-373.563	50.6153	303.184	-346.666	163.524	264.166	-221.147	131.815	224.396	-231.309	120.466	315.574	-1075.58	74.34820000000001	113.671	-778.402	49.4198	83.2486	-856.1660000000001	30.5594	146.974	-876.171	29.9354	34.2549	-981.578	31.6228	49.4378	-907.211	119.785	95.8528	-812.196	32.4432	130.113	-820.503	33.9211	35.8393	-0	0	0	-845.646	996.72	150.243	-200	0	0	-0	0	200	-0	200	0	
96	3.216667	-566.679	1349.08	175.551	-727.669	1434.06	169.958	-644.813	1385.17	344.072	-646.842	1395.26	5.22713	-554.241	1183.01	179.741	-820.202	1249.08	169.94	-643.509	949.688	308.583	-623.967	966.003	35.969	-837.981	995.77	189.937	-834.304	993.8049999999999	112.541	-835.61	1044.24	157.089	-734.98	1085.01	448.802	-0	0	0	-0	0	0	-0	0	0	-656.841	816.5940000000001	442.658	-648.014	828.6319999999999	401	-705.1900000000001	817.521	445.808	-527.501	1082.3	-68.5804	-0	0	0	-0	0	0	-0	0	0	-317.784	924.2809999999999	-6.49168	-355.575	902.396	-27.616	-339.487	939.636	34.203	-721.092	789.583	5.76595	-757	572.499	56.4985	-688.306	651.53	76.8259	-0	0	0	-0	0	0	-758.343	472.336	119.6	-844.213	432.629	51.5736	-964.825	188.453	54.8883	-875.2809999999999	290.109	123.617	-0	0	0	-0	0	0	-692.903	772.9349999999999	338.464	-586.954	582.721	302.861	-573.915	724.21	319.807	-0	0	0	-0	0	0	-478.514	537.063	242.633	-545.198	386.033	314.869	-455.551	196.255	302.389	-442.916	339.356	238.567	-0	0	0	-0	0	0	-473.846	52.1104	241.841	-191.096	142.409	269.774	-251.579	100.114	208.535	-268.85	86.44970000000001	323.72	-371.695	47.6939	302.439	-340.642	158.895	261.397	-216.061	121.405	223.254	-227.281	112.915	314.53	-1074.7	76.47629999999999	113.771	-778.117	48.9527	83.2488	-855.7380000000001	30.5083	147.066	-875.8150000000001	29.7963	34.3603	-981.183	32.583	49.5717	-905.883	120.124	95.7393	-811.995	32.1629	130.118	-820.282	33.7095	35.8197	-0	0	0	-836.143	994.787	151.239	-200	0	0	-0	0	200	-0	200	0	
